<svg width="1024" height="103" viewBox="0 0 1024 103" fill="none" xmlns="http://www.w3.org/2000/svg">
<path fill-rule="evenodd" clip-rule="evenodd" d="M1024 0.181824L981.333 13.5101C938.667 26.8384 853.333 53.495 768 55.399C682.667 57.303 597.333 34.4546 512 23.0303C426.667 11.6061 341.333 11.6061 256 15.4141C170.667 19.2222 85.3333 26.8384 42.6666 30.6465L0 34.4546V103H42.6666C85.3333 103 170.667 103 256 103C341.333 103 426.667 103 512 103C597.333 103 682.667 103 768 103C853.333 103 938.667 103 981.333 103H1024V0.181824Z" fill="#3F3D56"/>
</svg>
